/* XPM */
static char *dummy[]={
"32 32 363 2",
"Qt c None",
"bK c #000000",
"dC c #000000",
"dg c #000000",
"aV c #010100",
"dh c #000000",
"ck c #010100",
"da c #000000",
"dB c #000001",
"#4 c #010100",
"dA c #010101",
"dO c #010101",
"#a c #020100",
"dz c #010202",
"#o c #030200",
"df c #000000",
"dy c #010202",
".5 c #030200",
"dN c #020202",
"dn c #000000",
"dD c #000000",
"am c #040300",
"a# c #050300",
"do c #000000",
"dM c #020303",
"b# c #050300",
"di c #000000",
".2 c #070400",
"dE c #010101",
"dx c #010202",
"dL c #030404",
"#P c #070500",
"dF c #020202",
"dK c #040405",
"dm c #000000",
"dG c #020303",
"dJ c #040505",
"dH c #030304",
"dI c #040404",
"dw c #010202",
"dp c #0e0e0d",
".4 c #130e02",
".# c #20201f",
"bZ c #150e02",
"bp c #160f02",
".3 c #1a1203",
"#B c #1b1304",
"#f c #112136",
"aa c #1d2733",
".6 c #1e2834",
"ba c #2d2d2c",
"aW c #2d2e2c",
"aE c #2e2e2d",
"an c #2e2f2d",
".S c #313231",
".G c #323331",
".w c #323332",
".k c #333432",
".d c #333433",
"c1 c #2d2d2c",
"#V c #211604",
"aD c #211704",
"b9 c #221804",
"#e c #251605",
"ag c #251a06",
"db c #2d2d2c",
"dj c #2c2c2b",
"dq c #2c2c2b",
"dr c #2d2d2c",
"dv c #2c2d2b",
"ds c #2d2e2c",
"dt c #2d2e2c",
"du c #2e2e2d",
"bw c #2b1e06",
"aU c #2e2106",
"#5 c #322306",
"#p c #3c2b0d",
"a. c #412908",
".c c #636462",
".a c #666764",
".b c #686a67",
"#b c #5a4020",
"bJ c #4b350a",
"b. c #573d0c",
"#G c #662f0b",
"al c #5e4017",
"ay c #6b521f",
"bY c #5c410d",
"#Q c #7a6037",
"#d c #944121",
"bo c #62450e",
"#t c #79330e",
"#C c #917558",
"aC c #715011",
"#U c #7c2a0b",
"ah c #967639",
"#c c #b76b55",
"bv c #8a6116",
"dl c #9d9f9b",
"aT c #8d6416",
"dk c #b7b8b5",
"#6 c #bb9857",
"bI c #996c18",
"a9 c #a5751b",
"ak c #a97723",
"az c #cea864",
"#q c #e08a78",
"aQ c #c6a15c",
"#R c #c9b4a2",
"#J c #505f69",
"#K c #51626d",
"cQ c #545d5e",
".z c #545d5f",
"#w c #54646e",
"#x c #566772",
"cR c #586263",
"aZ c #596264",
".A c #5a6364",
"cx c #5b4d2e",
"#M c #6082a7",
"bM c #626b6c",
"#3 c #648ab8",
"#O c #648ab9",
"#n c #658bb9",
"#z c #6687a9",
"bN c #687172",
"#Y c #698fb5",
"#Z c #6a90b7",
"b1 c #6e7677",
"#I c #6f92b7",
"#L c #6f94b9",
"cj c #715e36",
"#0 c #719dcc",
"cD c #727a7a",
"ad c #7291bb",
"ac c #7292bb",
"#X c #729dcc",
"#1 c #729fcf",
".9 c #7393bc",
"aH c #747b7c",
".8 c #7494bd",
"cK c #75623a",
".J c #757c7d",
"#v c #7699bb",
"#y c #769abe",
"cE c #798080",
"## c #7a92af",
"aI c #7b8182",
"#i c #7b9cbe",
".K c #7c8284",
"af c #7c94af",
"#j c #7c9ec0",
"#W c #7fa3cc",
"b8 c #805c15",
"#H c #80a3cc",
"#u c #81a4cc",
"#g c #82a5cd",
"cy c #846d3a",
".7 c #849ebf",
"#. c #84a1c4",
"#h c #85abd2",
"#k c #85abd3",
"#l c #86add5",
"#2 c #87add6",
"ae c #89a4c6",
"#N c #8bafd6",
"ab c #8da4c2",
"b4 c #8e8165",
"#A c #90b3d8",
"bU c #917643",
"bk c #93773f",
"cf c #93815c",
"#m c #94b6da",
"aP c #958360",
"bs c #9c8d6d",
"cu c #9e9d94",
"ct c #a09170",
"cV c #a2a4a1",
"cU c #a2a5a2",
"a6 c #a3844a",
"cW c #a3a5a2",
"a4 c #a4a5a4",
"a3 c #a4a6a4",
"cq c #a59061",
"cJ c #a5997d",
"a2 c #a5a6a4",
"a1 c #a6a6a4",
"#9 c #a88b85",
".E c #a8a8a7",
".D c #a8a8a8",
"cz c #a99c7b",
".C c #a9a8a8",
"bF c #ab8a4c",
"c3 c #abb1af",
"ax c #acaca5",
"de c #acaeaa",
"cB c #adaeaa",
"cX c #aea58c",
"bd c #afb3b2",
"c4 c #b0b5b3",
"ci c #b18f48",
".n c #b3b6b7",
"cs c #b49959",
"bE c #b4a98f",
"bT c #b4b3ac",
"be c #b4b8b7",
".1 c #b5b6b3",
".R c #b6b8b4",
"#T c #b77d7d",
".F c #b7b8b5",
"bX c #b8831f",
".v c #b8b9b6",
".o c #b8bbbc",
".j c #b9bab7",
"b3 c #b9bbb8",
"#S c #bab1b0",
"bS c #babbb8",
"bR c #babbb9",
"bQ c #babcb9",
"bn c #bb851f",
"bP c #bbbcb9",
"#F c #bd1910",
"a5 c #beb6a2",
"cP c #bec2bf",
"b7 c #c08b27",
"#8 c #c1976b",
"cw c #c1baa7",
"aY c #c1c4c3",
"cS c #c2c6c3",
"aB c #c38a21",
"aS c #c48b20",
"bu c #c48b21",
"bt c #c4a15e",
".y c #c5c7c7",
"a0 c #c6c9c7",
"cL c #c8c4b5",
"bL c #c8cac9",
"bz c #c8cbc9",
"b5 c #c9b071",
".B c #cacccc",
"b0 c #cacdcb",
"bA c #cbcdcc",
"ca c #cbcfcc",
"bO c #cccfcd",
"bH c #cd952c",
"cY c #cdcbbd",
"cb c #cdd0ce",
"b2 c #cdd1ce",
"aj c #ce9731",
"a8 c #ce9732",
"bW c #d09b39",
"bm c #d09c3a",
"bb c #d0d1cf",
"bx c #d0d2cf",
"ao c #d0d2d0",
"cC c #d0d3d0",
"cp c #d1cec2",
"aX c #d1d1cf",
"aF c #d1d2cf",
"c. c #d1d2d0",
"aA c #d2a042",
"bV c #d2ad69",
"cr c #d2bc7d",
"cl c #d2d2d0",
"cv c #d2d3d0",
"cO c #d2d3d1",
"cF c #d2d6d3",
"bl c #d3ad67",
"aN c #d3d4d2",
".T c #d3d4d3",
"cI c #d3d6d3",
"aM c #d4d4d2",
"aL c #d4d5d2",
"aK c #d4d5d3",
"aG c #d4d5d4",
"cH c #d4d6d3",
".H c #d5d5d4",
"cT c #d5d7d4",
".x c #d6d6d4",
".l c #d6d6d5",
"aR c #d7aa57",
".e c #d7d7d5",
".Q c #d7d7d6",
"aJ c #d7d9d7",
".P c #d8d7d6",
".O c #d8d8d7",
".I c #d8d9d8",
"#7 c #d9ac66",
"bG c #d9af60",
".N c #d9d8d7",
".M c #d9d8d8",
"a7 c #dab166",
"ai c #dab266",
"bj c #dad8d0",
".L c #dbdcdc",
"b6 c #dcc07c",
"c2 c #dfe2de",
"cg c #e0d29e",
"c5 c #e0e3df",
"ch c #e2d5a1",
"#D c #e39090",
"#s c #e41f19",
"br c #e4e4df",
"ce c #e4e5e1",
"bc c #e4e5e2",
"cG c #e4e6e3",
"d# c #e4e7e2",
"d. c #e4e7e3",
"cA c #e5e5e0",
"bf c #e5e6e4",
"cM c #e5e7e3",
"c# c #e5e7e4",
"cZ c #e5e8e3",
"dd c #e5e8e4",
"aO c #e6e6e1",
"by c #e6e7e4",
"dc c #e6e8e4",
"bB c #e6e8e5",
"c9 c #e6e9e4",
"co c #e7e9e5",
"cn c #e7e9e6",
"cm c #e8e9e6",
"cd c #e8eae6",
"cc c #e8eae7",
"bD c #e9eae7",
"av c #e9eae9",
"bC c #e9ebe7",
"bq c #e9ebe8",
"au c #e9ebe9",
"c8 c #e9ece7",
"c7 c #e9ece8",
".m c #eae9e9",
"bi c #eaebe8",
"at c #eaebe9",
"as c #eaebea",
"c6 c #eaece8",
"bh c #eaece9",
"ar c #ebebea",
".p c #ebebeb",
"bg c #ebece9",
"aq c #ebecea",
"ap c #ebeceb",
"c0 c #ebede9",
"cN c #ebedea",
".Z c #ededed",
"aw c #edeeed",
".Y c #eeeded",
".X c #eeedee",
".W c #eeeeee",
".V c #eeeeef",
"#E c #ef3939",
".U c #efeeef",
".0 c #efefee",
".u c #f0f0ef",
".t c #f1f0ef",
".s c #f1f0f0",
".r c #f1f1f0",
".q c #f2f1f1",
".i c #f3f2f2",
".h c #f3f3f2",
".g c #f3f3f3",
".f c #f4f3f3",
"#r c #ff5b5b",
"QtQtQtQtQtQtQtQtQtQtQtQtQtQtQtQtQtQtQtQtQtQtQtQtQtQtQtQtQtQtQtQt",
"QtQt.#.a.b.b.b.b.b.b.b.b.b.b.b.b.b.b.b.b.b.cQtQtQtQtQtQtQtQtQtQt",
"QtQt.d.e.f.f.f.f.g.g.f.f.h.h.h.i.i.i.i.i.i.jQtQtQtQtQtQtQtQtQtQt",
"QtQt.k.l.m.n.o.p.q.q.r.r.r.s.s.s.t.t.u.u.r.vQtQtQtQtQtQtQtQtQtQt",
"QtQt.w.x.y.z.A.B.C.C.C.C.D.D.D.D.D.D.E.E.r.FQtQtQtQtQtQtQtQtQtQt",
"QtQt.G.H.I.J.K.L.M.N.O.O.O.O.O.O.P.Q.Q.Q.u.RQtQtQtQtQtQtQtQtQtQt",
"QtQt.S.T.U.V.W.W.W.W.W.W.W.X.Y.Z.Z.Z.Z.Z.0.1QtQtQtQt.2.3.4.5QtQt",
"QtQt.6.7.8.9.9.9.9.9.9.9.9.9.9.9.9.9.9.9#.##QtQtQt#a#b#c#d#eQtQt",
"QtQt#f#g#h#i#j#k#l#l#l#l#l#l#l#l#l#l#l#l#m#nQtQt#o#p#q#r#s#tQtQt",
"QtQt#f#u#v#w#x#y#z#z#z#z#z#z#z#z#z#z#z#z#A#nQtQt#B#C#D#E#F#GQtQt",
"QtQt#f#H#I#J#K#L#M#M#M#M#M#M#M#M#M#M#M#M#N#OQt#P#Q#R#S#T#U#VQtQt",
"QtQt#f#W#X#Y#Z#0#1#1#1#1#1#1#1#1#1#1#1#1#2#3#4#5#6#7#8#9a.a#QtQt",
"QtQtaaab.9acacacacacacacacacacacacacadadaeafagahaiajakalamQtQtQt",
"QtQtanaoapapapaqararasasasasatatatauavavawaxayazaAaBaCaDQtQtQtQt",
"QtQtaEaFaGaHaIaJaKaKaKaLaLaMaMaNaNaNaNaNaOaPaQaRaSaTaUaVQtQtQtQt",
"QtQtaWaXaY.zaZa0a1a1a2a2a2a2a2a2a2a3a4a4a5a6a7a8a9b.b#QtQtQtQtQt",
"QtQtbabbbcbdbebfbgbgbgbgbhatatbibibibibjbkblbmbnbobpQtQtQtQtQtQt",
"QtQtbabbaqaqbgbgbgbhatatbibibibibqbqbrbsbtaRbubvbw#4QtQtQtQtQtQt",
"QtQtbabxbybzbAbBbibibibibqbqbCbCbDbDbEbFbGbHbIbJbKQtQtQtQtQtQtQt",
"QtQtbaaFbLbMbNbObPbPbPbPbQbRbRbSbSbTbUbVbWbXbYbZQtQtQtQtQtQtQtQt",
"QtQtbaaFb0bNb1b2bQbRbSbSbSbSb3b3b3b4b5b6b7b8b9QtQtQtQtQtQtQtQtQt",
"QtQtbac.c#cacbbybDcccccdcdcdcdcdcecfcgchcicjckQtQtQtQtQtQtQtQtQt",
"QtQtbaclcccccdcdcdcdcdcmcncocococpcqcrcsctcuQtQtQtQtQtQtQtQtQtQt",
"QtQtbacvcdcdcdcdcmcncncocococococwcxcyczcAcBQtQtQtQtQtQtQtQtQtQt",
"QtQtbacvcCcDcEcFcGcHcHcHcHcHcIcHcJcKcLcMcNcBQtQtQtQtQtQtQtQtQtQt",
"QtQtbacOcPcQcRcScTcUcUcVcVcVcVcWcXcYcZcZc0cBQtQtQtQtQtQtQtQtQtQt",
"QtQtc1cOc2c3c4c5bCc6c6c7c7c7c7c8c9cMd.d#bhcBQtQtQtQtQtQtQtQtQtQt",
"QtdadbcOdcdcdcdcddddcZcZcZcMcMcMd#d#d#d#c6dedfdgQtQtQtQtQtQtQtQt",
"dhdidjdkcOcOcOcOcOcOcOcOcOcOcOcOcOcOcOcOc.dldmdnbKQtQtQtQtQtQtQt",
"dhdodpdqdrdrdrdrdrdrdrdrdrdrdrdrdrdrdsdtdudvdwdxdydzdAdBdCbKQtQt",
"QtdgdfdndndndndndndndndndndndndndDdidEdFdGdHdIdJdKdLdMdNdOdhQtQt",
"QtQtQtbKbKbKbKbKbKbKbKbKbKbKbKbKbKbKbKdCdgdhdhdhdgdCbKbKQtQtQtQt"};
